<svg xmlns="http://www.w3.org/2000/svg" width="400" height="400" viewBox="0 0 400 400" fill="none">
  <rect width="400" height="400" fill="#F3F4F6"/>
  <path d="M200 140C186.745 140 176 150.745 176 164V196H152C145.373 196 140 201.373 140 208V252C140 258.627 145.373 264 152 264H248C254.627 264 260 258.627 260 252V208C260 201.373 254.627 196 248 196H224V164C224 150.745 213.255 140 200 140ZM192 164C192 159.582 195.582 156 200 156C204.418 156 208 159.582 208 164V196H192V164Z" fill="#D1D5DB"/>
</svg>
